<svg xmlns="http://www.w3.org/2000/svg" xmlns:xlink="http://www.w3.org/1999/xlink" version="1.1" width="256" height="256" viewBox="0 0 256 256" xml:space="preserve">
<g style="stroke: none; stroke-width: 0; stroke-dasharray: none; stroke-linecap: butt; stroke-linejoin: miter; stroke-miterlimit: 10; fill: none; fill-rule: nonzero; opacity: 1;" transform="translate(1.4065934065934016 1.4065934065934016) scale(2.81 2.81)">
	<circle cx="45" cy="45" r="45" style="stroke: none; stroke-width: 1; stroke-dasharray: none; stroke-linecap: butt; stroke-linejoin: miter; stroke-miterlimit: 10; fill: rgb(3,45,66); fill-rule: evenodd; opacity: 1;" transform="  matrix(1 0 0 1 0 0) "/>
	<path d="M 45.191 13.751 c -17.897 -0.037 -32.436 14.441 -32.473 32.338 c -0.019 8.936 3.653 17.483 10.148 23.62 c 2.287 2.178 5.821 2.361 8.322 0.432 c 8.198 -6.101 19.429 -6.101 27.627 0 c 2.525 1.934 6.086 1.726 8.369 -0.488 c 12.982 -12.32 13.52 -32.831 1.2 -45.813 C 62.34 17.471 53.97 13.827 45.191 13.742 M 45.001 62.321 c -8.676 0.235 -15.899 -6.608 -16.134 -15.284 c -0.008 -0.282 -0.008 -0.564 0 -0.845 c 0 -8.91 7.223 -16.134 16.134 -16.134 s 16.134 7.223 16.134 16.134 c 0.232 8.676 -6.613 15.897 -15.289 16.13 C 45.564 62.329 45.282 62.329 45.001 62.321" style="stroke: none; stroke-width: 1; stroke-dasharray: none; stroke-linecap: butt; stroke-linejoin: miter; stroke-miterlimit: 10; fill: rgb(98,216,78); fill-rule: evenodd; opacity: 1;" transform=" matrix(1 0 0 1 0 0) " stroke-linecap="round"/>
</g>
</svg>